# xmcd CD database file
#
# Track frame offsets:
#	150
#	18015
#	40431
#	58234
#
# Disc length: 1071 seconds
#
# Revision: 5
# Processed by: cddbd v1.5.2PL0 Copyright (c) Steve Scherf et al.
# Submitted via: CDex 1.70beta3
#
DISCID=2d042d04
DTITLE=吉岡亜衣加 - 十六夜涙
DYEAR=2010
DGENRE=JPop
TTITLE0=十六夜涙
TTITLE1=優しく抱きしめたら・・・
TTITLE2=十六夜涙 (instrumental)
TTITLE3=優しく抱きしめたら・・・ (instrumental)
EXTD=YEAR: 2010
EXTT0=
EXTT1=
EXTT2=
EXTT3=
PLAYORDER=
